<svg xmlns="http://www.w3.org/2000/svg" xmlns:xlink="http://www.w3.org/1999/xlink" version="1.1" x="0px" y="0px" viewBox="0 0 64 64"  xml:space="preserve"><path d="M7.605,49.553l-5.5,11c-0.155,0.31-0.138,0.678,0.044,0.973C2.332,61.82,2.653,62,3,62h58c0.347,0,0.668-0.18,0.851-0.474  c0.182-0.295,0.199-0.663,0.044-0.973l-5.5-11C56.225,49.214,55.879,49,55.5,49h-47C8.121,49,7.775,49.214,7.605,49.553z M54.882,51  l4.5,9H4.618l4.5-9H54.882z"></path><path d="M14.605,35.553l-5,10c-0.155,0.31-0.138,0.678,0.044,0.973C9.832,46.82,10.153,47,10.5,47h43  c0.347,0,0.668-0.18,0.851-0.474c0.182-0.295,0.199-0.663,0.044-0.973l-5-10C49.225,35.214,48.879,35,48.5,35h-33  C15.121,35,14.775,35.214,14.605,35.553z M47.882,37l4,8H12.118l4-8H47.882z"></path><path d="M24.5,19h15c0.347,0,0.668-0.18,0.851-0.474c0.182-0.295,0.199-0.663,0.044-0.973l-7.5-15c-0.339-0.678-1.45-0.678-1.789,0  l-7.5,15c-0.155,0.31-0.138,0.678,0.044,0.973C23.832,18.82,24.153,19,24.5,19z M32,5.236L37.882,17H26.118L32,5.236z"></path><path d="M21.605,21.553l-5,10c-0.155,0.31-0.138,0.678,0.044,0.973C16.832,32.82,17.153,33,17.5,33h29  c0.347,0,0.668-0.18,0.851-0.474c0.182-0.295,0.199-0.663,0.044-0.973l-5-10C42.225,21.214,41.879,21,41.5,21h-19  C22.121,21,21.775,21.214,21.605,21.553z M40.882,23l4,8H19.118l4-8H40.882z"></path></svg>